solid OpenSCAD_Model
  facet normal -1 0 0
    outer loop
      vertex 0 0 0
      vertex 0 0 5
      vertex 0 12 0
    endloop
  endfacet
  facet normal -1 0 0
    outer loop
      vertex 0 12 0
      vertex 0 0 5
      vertex 0 12 5
    endloop
  endfacet
  facet normal 0 -1 0
    outer loop
      vertex 0 0 5
      vertex 0 0 0
      vertex 20 0 0
    endloop
  endfacet
  facet normal 0 -1 0
    outer loop
      vertex 15 0 5
      vertex 0 0 5
      vertex 20 0 0
    endloop
  endfacet
  facet normal 0 -1 0
    outer loop
      vertex 40 0 32
      vertex 20 0 27
      vertex 40 0 27
    endloop
  endfacet
  facet normal 0 -1 0
    outer loop
      vertex 15 0 32
      vertex 20 0 27
      vertex 40 0 32
    endloop
  endfacet
  facet normal 0 -1 0
    outer loop
      vertex 20 0 27
      vertex 15 0 5
      vertex 20 0 0
    endloop
  endfacet
  facet normal 0 -1 0
    outer loop
      vertex 15 0 32
      vertex 15 0 5
      vertex 20 0 27
    endloop
  endfacet
  facet normal 0 0 -1
    outer loop
      vertex 0 0 0
      vertex 0 12 0
      vertex 20 0 0
    endloop
  endfacet
  facet normal 0 0 -1
    outer loop
      vertex 20 0 0
      vertex 0 12 0
      vertex 20 12 0
    endloop
  endfacet
  facet normal 0 1 0
    outer loop
      vertex 0 12 0
      vertex 0 12 5
      vertex 20 12 0
    endloop
  endfacet
  facet normal 0 1 0
    outer loop
      vertex 20 12 0
      vertex 0 12 5
      vertex 15 12 5
    endloop
  endfacet
  facet normal 0 1 0
    outer loop
      vertex 20 12 0
      vertex 15 12 5
      vertex 15 12 32
    endloop
  endfacet
  facet normal 0 1 0
    outer loop
      vertex 20 12 27
      vertex 15 12 32
      vertex 40 12 32
    endloop
  endfacet
  facet normal 0 1 0
    outer loop
      vertex 20 12 0
      vertex 15 12 32
      vertex 20 12 27
    endloop
  endfacet
  facet normal 0 1 0
    outer loop
      vertex 20 12 27
      vertex 40 12 32
      vertex 40 12 27
    endloop
  endfacet
  facet normal 0 0 1
    outer loop
      vertex 0 12 5
      vertex 0 0 5
      vertex 15 0 5
    endloop
  endfacet
  facet normal 0 0 1
    outer loop
      vertex 15 12 5
      vertex 0 12 5
      vertex 15 0 5
    endloop
  endfacet
  facet normal -1 0 0
    outer loop
      vertex 15 0 5
      vertex 15 0 32
      vertex 15 12 5
    endloop
  endfacet
  facet normal -1 0 0
    outer loop
      vertex 15 12 5
      vertex 15 0 32
      vertex 15 12 32
    endloop
  endfacet
  facet normal 0 0 1
    outer loop
      vertex 15 12 32
      vertex 15 0 32
      vertex 40 0 32
    endloop
  endfacet
  facet normal 0 0 1
    outer loop
      vertex 40 12 32
      vertex 15 12 32
      vertex 40 0 32
    endloop
  endfacet
  facet normal 1 0 0
    outer loop
      vertex 40 0 32
      vertex 40 0 27
      vertex 40 12 27
    endloop
  endfacet
  facet normal 1 0 0
    outer loop
      vertex 40 12 32
      vertex 40 0 32
      vertex 40 12 27
    endloop
  endfacet
  facet normal 0 0 -1
    outer loop
      vertex 20 0 27
      vertex 20 12 27
      vertex 40 0 27
    endloop
  endfacet
  facet normal 0 0 -1
    outer loop
      vertex 40 0 27
      vertex 20 12 27
      vertex 40 12 27
    endloop
  endfacet
  facet normal 1 0 0
    outer loop
      vertex 20 0 27
      vertex 20 0 0
      vertex 20 12 0
    endloop
  endfacet
  facet normal 1 0 0
    outer loop
      vertex 20 12 27
      vertex 20 0 27
      vertex 20 12 0
    endloop
  endfacet
endsolid OpenSCAD_Model
